<svg width="30" height="30" viewBox="0 0 30 30" fill="none" xmlns="http://www.w3.org/2000/svg">
    <circle opacity="0.2" cx="15" cy="15" r="13" stroke="white" stroke-width="4"/>
    <mask id="path-2-inside-1" fill="white">
        <path d="M15 28.0338C15 29.1197 15.8841 30.0133 16.9607 29.8713C19.6847 29.5122 22.2715 28.4095 24.4281 26.6667C27.097 24.5099 28.9457 21.5032 29.6659 18.1482C30.3861 14.7932 29.9342 11.2927 28.3856 8.23057C27.1343 5.75623 25.228 3.68901 22.8913 2.24353C21.9678 1.67224 20.7949 2.12427 20.3492 3.11452C19.9036 4.10477 20.3585 5.25545 21.2544 5.86913C22.7818 6.91536 24.0315 8.33453 24.8764 10.0053C26.019 12.2646 26.3524 14.8474 25.821 17.3229C25.2896 19.7983 23.9256 22.0167 21.9564 23.6081C20.5002 24.7849 18.7782 25.5661 16.956 25.8933C15.8871 26.0853 15 26.9478 15 28.0338Z"/>
    </mask>
    <path d="M15 28.0338C15 29.1197 15.8841 30.0133 16.9607 29.8713C19.6847 29.5122 22.2715 28.4095 24.4281 26.6667C27.097 24.5099 28.9457 21.5032 29.6659 18.1482C30.3861 14.7932 29.9342 11.2927 28.3856 8.23057C27.1343 5.75623 25.228 3.68901 22.8913 2.24353C21.9678 1.67224 20.7949 2.12427 20.3492 3.11452C19.9036 4.10477 20.3585 5.25545 21.2544 5.86913C22.7818 6.91536 24.0315 8.33453 24.8764 10.0053C26.019 12.2646 26.3524 14.8474 25.821 17.3229C25.2896 19.7983 23.9256 22.0167 21.9564 23.6081C20.5002 24.7849 18.7782 25.5661 16.956 25.8933C15.8871 26.0853 15 26.9478 15 28.0338Z" stroke="white" stroke-width="4" stroke-linecap="round" mask="url(#path-2-inside-1)"/>
</svg>
