<svg width="50" height="32" viewBox="0 0 50 32" fill="none" xmlns="http://www.w3.org/2000/svg">
<path fill-rule="evenodd" clip-rule="evenodd" d="M15.2395 31.2396C19.2812 31.2396 23.1575 29.634 26.0155 26.776C28.8735 23.918 30.479 20.0418 30.479 16C30.479 11.9582 28.8735 8.08196 26.0155 5.22398C23.1575 2.36601 19.2812 0.760414 15.2395 0.760414C11.1977 0.760414 7.32142 2.36601 4.46345 5.22398C1.60547 8.08196 -0.00012207 11.9582 -0.00012207 16C-0.00012207 20.0418 1.60547 23.918 4.46345 26.776C7.32142 29.634 11.1977 31.2396 15.2395 31.2396Z" fill="#D2222B"/>
<path fill-rule="evenodd" clip-rule="evenodd" d="M34.6353 31.2396C38.6771 31.2396 42.5534 29.634 45.4113 26.776C48.2693 23.918 49.8749 20.0418 49.8749 16C49.8749 11.9582 48.2693 8.08196 45.4113 5.22398C42.5534 2.36601 38.6771 0.760414 34.6353 0.760414C30.5935 0.760414 26.7173 2.36601 23.8593 5.22398C21.0013 8.08196 19.3958 11.9582 19.3958 16C19.3958 20.0418 21.0013 23.918 23.8593 26.776C26.7173 29.634 30.5935 31.2396 34.6353 31.2396Z" fill="#00A3D4"/>
<path fill-rule="evenodd" clip-rule="evenodd" d="M24.9374 4.24368C23.2026 5.67214 21.8058 7.4673 20.8476 9.50006C19.8894 11.5328 19.3936 13.7527 19.3958 15.9999C19.3936 18.2472 19.8894 20.467 20.8476 22.4998C21.8058 24.5325 23.2026 26.3277 24.9374 27.7562C26.6723 26.3277 28.069 24.5325 29.0272 22.4998C29.9854 20.467 30.4813 18.2472 30.4791 15.9999C30.4813 13.7527 29.9854 11.5328 29.0272 9.50006C28.069 7.4673 26.6723 5.67214 24.9374 4.24368Z" fill="#6F6FA5"/>
</svg>
