<svg width="51" height="32" viewBox="0 0 51 32" fill="none" xmlns="http://www.w3.org/2000/svg">
<path fill-rule="evenodd" clip-rule="evenodd" d="M15.4895 31.2396C19.5312 31.2396 23.4075 29.634 26.2655 26.776C29.1235 23.918 30.729 20.0418 30.729 16C30.729 11.9582 29.1235 8.08196 26.2655 5.22398C23.4075 2.36601 19.5312 0.760414 15.4895 0.760414C11.4477 0.760414 7.57142 2.36601 4.71345 5.22398C1.85547 8.08196 0.249878 11.9582 0.249878 16C0.249878 20.0418 1.85547 23.918 4.71345 26.776C7.57142 29.634 11.4477 31.2396 15.4895 31.2396Z" fill="#EB001B"/>
<path fill-rule="evenodd" clip-rule="evenodd" d="M34.8853 31.2396C38.9271 31.2396 42.8034 29.634 45.6613 26.776C48.5193 23.918 50.1249 20.0418 50.1249 16C50.1249 11.9582 48.5193 8.08196 45.6613 5.22398C42.8034 2.36601 38.9271 0.760414 34.8853 0.760414C30.8435 0.760414 26.9673 2.36601 24.1093 5.22398C21.2513 8.08196 19.6458 11.9582 19.6458 16C19.6458 20.0418 21.2513 23.918 24.1093 26.776C26.9673 29.634 30.8435 31.2396 34.8853 31.2396Z" fill="#F79E1B"/>
<path fill-rule="evenodd" clip-rule="evenodd" d="M25.1874 4.24368C23.4526 5.67214 22.0558 7.4673 21.0976 9.50006C20.1394 11.5328 19.6436 13.7527 19.6458 15.9999C19.6436 18.2472 20.1394 20.467 21.0976 22.4998C22.0558 24.5325 23.4526 26.3277 25.1874 27.7562C26.9223 26.3277 28.319 24.5325 29.2772 22.4998C30.2354 20.467 30.7313 18.2472 30.7291 15.9999C30.7313 13.7527 30.2354 11.5328 29.2772 9.50006C28.319 7.4673 26.9223 5.67214 25.1874 4.24368Z" fill="#FF5F00"/>
</svg>
